<svg width="45" height="38" viewBox="0 0 45 38" fill="none" xmlns="http://www.w3.org/2000/svg">
    <path fill-rule="evenodd" clip-rule="evenodd"
        d="M39.851 0.602164C40.3865 0.376811 40.9725 0.299088 41.5482 0.377085C42.1238 0.455081 42.668 0.685945 43.1242 1.04565C43.5804 1.40535 43.9318 1.88074 44.1418 2.42234C44.3519 2.96394 44.413 3.55195 44.3187 4.12516L39.4047 33.932C38.928 36.8072 35.7734 38.456 33.1365 37.0238C30.9309 35.8257 27.6549 33.9797 24.7082 32.0535C23.2349 31.0893 18.7217 28.0018 19.2764 25.8048C19.753 23.9263 27.3364 16.8673 31.6697 12.6705C33.3705 11.0217 32.5949 10.0705 30.5864 11.5872C25.5965 15.3528 17.5907 21.0793 14.943 22.6913C12.6074 24.1127 11.3897 24.3553 9.93371 24.1127C7.27738 23.6707 4.81388 22.986 2.80321 22.1518C0.0862103 21.0252 0.218377 17.2898 2.80104 16.2022L39.851 0.602164Z"
        fill="currentColor" />
</svg>
