<svg width="1348" height="616" viewBox="0 0 1348 616" fill="none" xmlns="http://www.w3.org/2000/svg">
    <path
        d="M145.981 0C52.4241 0 5.64568 49.9005 5.64568 129.58V157.75C5.64568 218.918 23.3892 267.209 74.2003 312.281L143.562 374.254C172.596 400.814 175.016 416.106 175.016 449.91V466.007C175.016 489.347 169.37 501.42 153.24 501.42C136.303 501.42 130.657 490.152 130.657 470.031V387.132H0V482.908C0 570.637 46.7785 614.903 139.529 614.903H168.564C270.993 614.903 316.964 552.125 316.964 458.763V428.984C316.964 363.791 298.414 323.549 237.925 268.014L169.37 206.846C145.981 185.115 140.335 170.628 140.335 145.677V130.385C140.335 113.483 145.175 103.825 160.499 103.825C176.629 103.825 180.662 113.483 180.662 129.58V193.968H308.899V122.337C308.899 47.486 273.412 0 175.823 0H145.981Z"
        fill="white" />
    <path
        d="M661.458 169.018C661.458 66.8023 618.712 0 512.251 0H486.442C380.787 0 337.235 65.9974 337.235 169.018V453.129C337.235 556.954 389.659 615.708 487.248 615.708H513.057C604.195 615.708 661.458 556.954 661.458 453.129V169.018ZM523.542 461.982C523.542 480.494 517.09 491.762 500.153 491.762C481.603 491.762 475.151 480.494 475.151 461.982V155.335C475.151 132.8 480.796 121.532 499.346 121.532C515.477 121.532 523.542 132.8 523.542 155.335V461.982Z"
        fill="white" />
    <path
        d="M1010.37 169.018C1010.37 66.8023 967.629 0 861.167 0H835.359C729.704 0 686.151 65.9974 686.151 169.018V453.129C686.151 556.954 738.576 615.708 836.165 615.708H861.974C953.111 615.708 1010.37 556.954 1010.37 453.129V169.018ZM872.459 461.982C872.459 480.494 866.007 491.762 849.07 491.762C830.52 491.762 824.067 480.494 824.067 461.982V155.335C824.067 132.8 829.713 121.532 848.263 121.532C864.394 121.532 872.459 132.8 872.459 155.335V461.982Z"
        fill="white" />
    <path
        d="M1036.68 8.04846V606.855H1152.01V294.574L1231.05 606.855H1348V8.04846H1234.28V297.793L1165.73 8.04846H1036.68Z"
        fill="white" />
</svg>
