<svg width="2866" height="229" viewBox="0 0 2866 229" fill="none" xmlns="http://www.w3.org/2000/svg">
    <path
        d="M2860.71 227.398C2822.31 214.849 2783.42 202.054 2745.79 189.673C2669.95 164.72 2591.51 138.915 2513.19 113.842C2491.02 106.744 2467 100.044 2443.77 93.5594C2411.77 84.6315 2378.7 75.4093 2350.28 65.0889C2335.36 59.6702 2320.65 55.1187 2305.62 51.2914V51.2834C2305.59 51.2834 2305.59 51.2834 2305.59 51.2834C2291.49 47.6948 2277.12 44.7347 2261.98 42.2919C2253.23 40.8835 2244.46 39.5785 2235.96 38.3213C2210.65 34.5576 2186.77 31.0088 2165.59 25.0409L2164.71 24.8022H2163.54C2038.5 25.1683 1913.66 18.6832 1792.98 12.421C1675.6 6.33384 1554.23 0.0397849 1432.53 0C1432.12 0 1431.73 0 1431.35 0C1308.51 0 1185.39 5.43469 1066.34 10.6864C947.43 15.9301 824.475 21.3568 701.875 21.3568C701.738 21.3568 701.602 21.3568 701.465 21.3568H700.235L699.36 21.6194C675.42 28.9717 649.074 34.9316 621.226 41.2495C613.765 42.9285 606.331 44.6154 598.897 46.3341C584.959 49.5647 572.224 52.9783 559.98 56.5192C559.816 56.5192 559.652 56.5271 559.488 56.5271L559.516 56.6465C543.965 61.1581 529.207 65.8847 514.012 70.7703L507.972 72.7118C484.168 80.3506 456.374 86.9948 429.51 93.4162C403 99.75 375.589 106.299 351.839 113.834C273.376 138.74 195.242 164.521 119.676 189.45C81.9337 201.911 42.9072 214.794 4.31805 227.398L0 228.814H2865.03L2860.71 227.398ZM2747.84 192.904C2681.46 192.896 2614.06 192.776 2548.8 192.649C2543.96 192.641 2539.07 192.633 2534.2 192.625C2532.43 191.925 2530.62 191.225 2528.85 190.524C2507.37 182.122 2485.64 173.624 2463.8 165.07H2663.15C2689.46 173.703 2715.62 182.305 2741.44 190.803C2743.55 191.495 2745.71 192.203 2747.84 192.904ZM524.261 116.667C506.852 123.43 489.416 130.218 472.007 137.029C459.025 137.077 446.071 137.132 433.172 137.188C384.717 137.395 334.649 137.61 285.565 137.626C307.238 130.6 329.019 123.605 350.828 116.667H524.261ZM668.833 70.1656C716.715 69.9587 765.525 70.3565 814.964 71.7331C805.59 75.6162 795.833 79.4515 786.104 83.2152C735.326 82.1728 684.384 82.0853 633.606 82.4831C644.702 78.8467 655.579 75.1308 665.827 71.2875C666.838 70.9135 667.85 70.5396 668.833 70.1656ZM798.84 30.6666C839.014 29.9425 879.134 28.9479 919.034 27.81C912.448 30.8019 905.752 33.7619 898.947 36.6981C858.363 36.9686 817.478 37.2312 776.511 37.454C784.328 35.1942 791.761 32.9344 798.84 30.6666ZM768.039 37.5017C726.881 37.7325 685.668 37.9155 644.702 38.0428C653.365 36.0456 662.028 33.9847 670.528 31.8602C710.429 31.892 750.466 31.4941 790.45 30.8178C783.344 33.0537 775.91 35.2738 768.039 37.5017ZM2089.45 38.0906C2048.56 38.0906 2007.62 37.9553 1966.79 37.7404C1960.75 35.6398 1954.82 33.4038 1948.84 30.9928C1989.09 32.2501 2029.57 33.2527 2070.07 33.8176C2076.19 35.3215 2082.61 36.7379 2089.45 38.0906ZM2079.77 33.937C2099.53 34.1757 2119.29 34.3189 2139.05 34.3189C2157.6 34.3189 2176.13 34.1995 2194.64 33.9529L2194.58 33.6664C2202.29 35.0589 2210.21 36.332 2218.3 37.5733C2179 37.8996 2139.57 38.0587 2100.08 38.0826C2092.89 36.7697 2086.14 35.3931 2079.77 33.937ZM2514.14 116.667C2535.82 123.613 2557.46 130.608 2579.08 137.626H2393.87C2376.08 130.639 2358.34 123.645 2340.69 116.667H2514.14ZM1875.29 198.33C1865.7 190.867 1855.86 183.18 1847.42 175.486C1847.14 175.239 1846.87 174.992 1846.6 174.753C1912.16 171.316 1978.93 168.149 2045.8 166.422C2060.8 175.748 2074.99 184.668 2088.6 193.309C2017.32 194.121 1945.8 196.071 1875.29 198.33ZM1656.03 205.516C1650.43 198.927 1644.8 192.14 1641.02 185.32C1690.93 183.108 1741.1 180.411 1789.81 177.785C1806.72 176.87 1823.72 175.955 1840.83 175.056C1841.16 175.366 1841.54 175.684 1841.87 176.003C1850.2 183.602 1859.88 191.169 1869.33 198.521C1842.52 199.389 1815.88 200.288 1789.45 201.187C1745.72 202.675 1700.71 204.203 1656.03 205.516ZM1169.18 204.298C1146.01 203.558 1122.86 202.81 1099.74 202.054C1065.22 200.932 1030.43 199.794 995.42 198.728C1004.99 191.312 1014.74 183.665 1023.16 176.003C1023.49 175.692 1023.84 175.382 1024.2 175.072C1041.17 175.971 1058.11 176.878 1074.95 177.785C1111.73 179.758 1149.78 181.811 1187.25 183.618C1199.6 184.214 1211.84 184.763 1224.03 185.273C1220.26 192.092 1214.63 198.879 1209.05 205.468C1195.83 205.102 1182.57 204.72 1169.18 204.298ZM775.746 193.604C790.176 184.397 804.497 175.35 818.79 166.438C885.939 168.165 952.704 171.332 1018.4 174.769C1018.16 175.008 1017.89 175.247 1017.61 175.486C1009.09 183.26 999.137 191.018 989.435 198.553C918.816 196.413 847.377 194.567 775.746 193.604ZM1990.08 47.4958C1995.98 49.1986 2001.75 50.8696 2007.38 52.5645C1962.34 54.6731 1920.28 57.2592 1885.51 59.519C1880.87 59.8214 1876.22 60.1317 1871.58 60.442C1865.86 57.0205 1860.34 53.6069 1854.99 50.2172C1901.04 48.8247 1945.15 47.6948 1987.7 46.8036L1990.08 47.4958ZM2043.75 65.4709C2053.29 69.7677 2062.61 74.0009 2071.74 78.1943C2030.47 79.4515 1985.78 81.6795 1935.47 84.9817C1929.4 85.3795 1923.34 85.7933 1917.27 86.2071C1916.59 85.8331 1915.9 85.4591 1915.22 85.0851C1908.61 81.4646 1902.02 77.8442 1895.46 74.2157C1900.52 73.8179 1905.57 73.42 1910.6 73.0381C1960.26 69.2903 2003.06 66.6645 2042.58 64.9775C2042.96 65.1446 2043.37 65.3038 2043.75 65.4709ZM1640.07 183.649C1636.19 176.639 1632.09 169.558 1628.07 162.691C1628.07 162.659 1628.04 162.619 1628.02 162.587C1682.4 160.009 1736.95 156.747 1789.86 153.58C1798.11 153.086 1806.39 152.593 1814.7 152.092C1822.79 159.094 1831.07 166.279 1839.03 173.425C1822.16 174.316 1805.41 175.215 1788.74 176.114C1740.07 178.74 1689.92 181.437 1640.07 183.649ZM1188.2 181.947C1150.79 180.14 1112.77 178.095 1076.01 176.114C1059.43 175.223 1042.73 174.332 1026 173.449C1033.93 166.295 1042.15 159.118 1050.27 152.092C1058.28 152.569 1066.29 153.047 1074.27 153.524C1115.07 155.975 1157.29 158.505 1198.92 160.693C1211.71 161.362 1224.41 161.974 1237.04 162.539C1236.99 162.611 1236.96 162.691 1236.9 162.762C1232.94 169.589 1228.84 176.623 1224.99 183.594C1212.77 183.077 1200.53 182.543 1188.2 181.947ZM975.333 79.6186C1008.78 81.7909 1042.04 84.1302 1074.62 86.4219C1090.58 87.5518 1106.71 88.6817 1122.94 89.8036C1122.91 89.8196 1122.88 89.8355 1122.88 89.8514C1118.51 93.4957 1113.67 97.1162 1108.73 100.697C1097.8 99.9569 1086.95 99.2089 1076.15 98.4689C1036.11 95.7158 995.202 92.9149 954.016 90.4163C961.177 86.9709 968.255 83.4778 974.787 79.921C974.978 79.8175 975.142 79.722 975.333 79.6186ZM1128.62 90.1936C1168.36 92.9308 1208.67 95.5566 1248.9 97.713C1258.08 98.2063 1267.18 98.6599 1276.26 99.0816C1276.07 99.4238 1275.9 99.7659 1275.71 100.108C1273.72 103.522 1271.5 106.967 1269.23 110.381C1258.66 109.887 1248.05 109.362 1237.29 108.781C1196.26 106.537 1155 103.84 1114.44 101.087C1119.33 97.5698 1124.09 94.005 1128.35 90.4084C1128.46 90.3368 1128.54 90.2652 1128.62 90.1936ZM1736.65 87.6075C1741.1 91.3951 1745.86 95.1826 1750.67 98.9384C1699.84 102.917 1647.94 106.776 1595.82 109.696C1593.55 106.211 1591.34 102.702 1589.32 99.2169C1589.13 98.8827 1588.96 98.5405 1588.77 98.1984C1638.54 95.31 1687.95 91.4746 1736.46 87.4404C1736.54 87.4961 1736.59 87.5518 1736.65 87.6075ZM1273.85 112.322C1327.8 114.773 1379.51 116.006 1429.6 116.038V127.671C1376.72 127.584 1322.42 126.263 1266.06 123.717C1267.13 122.173 1268.17 120.637 1269.23 119.11C1270.76 116.874 1272.32 114.606 1273.85 112.322ZM1282 99.3362C1333.21 101.644 1382.27 102.813 1429.6 102.821V114.327C1379.89 114.296 1328.54 113.07 1274.97 110.651C1277.24 107.238 1279.46 103.808 1281.45 100.387C1281.64 100.036 1281.81 99.6863 1282 99.3362ZM1583.58 99.5033C1585.63 103.004 1587.84 106.521 1590.11 110.015C1586.23 110.229 1582.35 110.436 1578.47 110.635C1532.01 113.038 1484.51 114.28 1435.42 114.343V102.806C1482.79 102.71 1528.51 101.477 1573.11 99.0816C1576.42 98.8986 1579.75 98.7156 1583.06 98.5246C1583.25 98.8509 1583.39 99.1771 1583.58 99.5033ZM1282.9 97.6652C1285.8 92.4136 1288.2 87.1301 1290.31 81.8227C1339.28 83.629 1385.33 84.544 1429.6 84.552V101.111C1382.54 101.103 1333.81 99.9569 1282.9 97.6652ZM1429.6 129.374V145.018C1372.92 144.906 1315.07 143.49 1255.38 140.769C1255.46 140.61 1255.54 140.458 1255.62 140.307C1258.36 135.334 1261.61 130.329 1264.94 125.388C1321.68 127.958 1376.37 129.287 1429.6 129.374ZM1435.42 129.382C1486.61 129.382 1536.52 128.228 1585.63 125.937C1590.49 125.706 1595.33 125.451 1600.17 125.213C1603.45 130.218 1606.64 135.278 1609.4 140.307C1609.49 140.474 1609.59 140.649 1609.68 140.817C1605.47 141.015 1601.26 141.23 1597.05 141.421C1543.87 143.848 1490.17 145.05 1435.42 145.034V129.382ZM1584.73 124.258C1535.89 126.542 1486.31 127.687 1435.42 127.687V116.022C1484.84 115.959 1532.72 114.725 1579.48 112.306C1583.39 112.107 1587.29 111.893 1591.2 111.678C1592.65 113.898 1594.13 116.102 1595.57 118.282C1596.72 120.025 1597.9 121.783 1599.07 123.55C1594.29 123.788 1589.51 124.035 1584.73 124.258ZM1601.29 117.956C1599.84 115.784 1598.36 113.579 1596.91 111.359C1649.39 108.423 1701.59 104.532 1752.72 100.53C1755.29 102.535 1757.86 104.524 1760.4 106.49C1763.19 108.622 1765.97 110.779 1768.76 112.943C1715 116.707 1659.96 120.446 1604.81 123.263C1603.64 121.481 1602.46 119.714 1601.29 117.956ZM1587.87 96.5274C1585 91.3235 1582.59 86.0877 1580.49 80.836C1627.63 78.5444 1674.67 75.6162 1721.07 72.497C1725.14 76.9848 1729.63 81.4408 1734.63 85.8331C1686.39 89.8355 1637.28 93.6549 1587.87 96.5274ZM1582.16 96.8457C1578.79 97.0366 1575.43 97.2276 1572.04 97.4106C1527.83 99.7977 1482.43 101.023 1435.42 101.111V84.5361C1480.76 84.4565 1524.35 83.4459 1567.37 81.4726C1569.83 81.3612 1572.29 81.2259 1574.75 81.1145C1576.85 86.3821 1579.29 91.6338 1582.16 96.8457ZM1429.6 82.8412C1385.55 82.8412 1339.72 81.942 1290.96 80.1438C1293.61 73.1893 1295.72 66.2188 1297.57 59.2882C1341.6 60.0521 1385.74 60.5455 1429.6 60.5455V82.8412ZM1285.19 79.9289C1275.36 79.547 1265.46 79.1491 1255.35 78.7035C1218.84 77.0803 1182.14 75.1706 1145.76 73.1654C1150.6 67.5318 1154.78 61.8425 1158.6 56.1531C1202.63 57.3069 1247.15 58.3891 1291.75 59.1848C1289.92 66.0836 1287.82 73.0142 1285.19 79.9289ZM1254.48 80.3825C1264.64 80.8281 1274.62 81.2339 1284.54 81.6079C1282.46 86.8993 1280.03 92.1669 1277.16 97.4027C1268.14 96.9809 1259.09 96.5433 1249.94 96.05C1210.01 93.9095 1169.97 91.2996 1130.48 88.5783C1135.68 84.0507 1140.27 79.4515 1144.37 74.8125C1180.88 76.8256 1217.77 78.7513 1254.48 80.3825ZM1236.22 110.444C1246.93 111.033 1257.56 111.566 1268.11 112.06C1266.58 114.311 1265.05 116.563 1263.52 118.783C1262.46 120.327 1261.39 121.887 1260.32 123.454C1250.62 123.001 1240.89 122.531 1231.08 122.006C1186.1 119.603 1140.79 116.683 1096.54 113.77C1098.89 112.099 1101.24 110.436 1103.59 108.789C1106.46 106.776 1109.36 104.731 1112.23 102.678C1153.14 105.455 1194.76 108.185 1236.22 110.444ZM1230.02 123.669C1239.8 124.194 1249.53 124.68 1259.2 125.125C1255.87 130.059 1252.62 135.056 1249.88 140.037C1249.8 140.196 1249.72 140.347 1249.64 140.506C1239.36 140.021 1229.09 139.52 1218.73 138.963C1171.09 136.392 1122.94 133.297 1076.34 130.297C1076.01 130.273 1075.66 130.25 1075.3 130.234C1075.47 130.098 1075.6 129.963 1075.77 129.828C1081.23 124.942 1087.68 120.112 1094.3 115.362C1138.9 118.298 1184.62 121.242 1230.02 123.669ZM1075.11 131.952C1121.74 134.952 1169.95 138.055 1217.66 140.626C1228.05 141.183 1238.41 141.708 1248.68 142.185C1245.21 148.431 1241.58 154.71 1238.02 160.86C1225.4 160.295 1212.74 159.691 1199.95 159.022C1158.39 156.842 1116.22 154.312 1075.44 151.869C1067.71 151.399 1059.92 150.938 1052.13 150.468C1052.46 150.198 1052.78 149.919 1053.09 149.641C1059.84 143.816 1066.75 137.809 1073.47 131.849C1074.02 131.881 1074.57 131.921 1075.11 131.952ZM1254.42 142.448C1314.44 145.193 1372.62 146.609 1429.6 146.721V165.483C1369.34 165.364 1307.63 163.908 1243.76 161.115C1247.34 154.972 1250.98 148.694 1254.42 142.448ZM1435.42 146.729C1435.81 146.729 1436.16 146.729 1436.54 146.729C1491.2 146.729 1544.82 145.519 1597.95 143.092C1602.16 142.901 1606.4 142.694 1610.61 142.488C1614.1 148.742 1617.74 155.036 1621.32 161.187C1617.38 161.37 1613.45 161.561 1609.54 161.736C1552.48 164.282 1494.65 165.539 1435.42 165.507V146.729ZM1616.35 142.217C1674.99 139.344 1733.64 135.589 1790.54 131.936C1790.87 131.913 1791.23 131.889 1791.55 131.873C1798.55 138.103 1805.77 144.373 1812.84 150.476C1804.75 150.962 1796.72 151.439 1788.68 151.917C1735.83 155.084 1681.33 158.346 1627.06 160.916C1623.48 154.765 1619.84 148.471 1616.35 142.217ZM1789.29 130.281C1732.47 133.926 1673.9 137.681 1615.42 140.546C1615.33 140.371 1615.22 140.204 1615.14 140.037C1612.36 135 1609.16 129.931 1605.91 124.926C1661.41 122.093 1716.75 118.33 1770.78 114.542C1777.23 119.587 1783.57 124.695 1789.26 129.82C1789.42 129.963 1789.59 130.106 1789.75 130.25C1789.59 130.257 1789.45 130.273 1789.29 130.281ZM1794.78 129.295C1789.12 124.21 1782.86 119.141 1776.5 114.144C1781.33 113.802 1786.2 113.46 1791.01 113.126C1840.15 109.665 1890.79 106.108 1941.35 103.195C1950.86 108.558 1960.23 113.961 1969.17 119.38C1969.33 119.484 1969.5 119.587 1969.69 119.698C1911.01 122.507 1852.44 126.231 1795.46 129.883C1795.24 129.693 1795 129.494 1794.78 129.295ZM1789.64 111.479C1784.59 111.829 1779.53 112.187 1774.45 112.545C1771.58 110.309 1768.71 108.081 1765.84 105.885C1763.35 103.975 1760.86 102.034 1758.35 100.092C1769.03 99.2487 1779.69 98.4053 1790.3 97.5698C1830.83 94.3631 1872.56 91.0609 1914.24 88.1645C1922.33 92.6045 1930.5 97.1003 1938.56 101.628C1888.44 104.532 1838.32 108.049 1789.64 111.479ZM1788.77 95.9306C1778 96.79 1767.18 97.6414 1756.3 98.4928C1751.46 94.7052 1746.65 90.8779 1742.17 87.0585C1742.12 87.0346 1742.09 87.0028 1742.06 86.9709C1758.46 85.6023 1774.77 84.2178 1790.95 82.8332C1823.28 80.0801 1856.52 77.2633 1889.69 74.6613C1896.47 78.4091 1903.28 82.1489 1910.08 85.8808C1910.52 86.1275 1910.98 86.3741 1911.42 86.6208C1870.15 89.4933 1828.89 92.7557 1788.77 95.9306ZM1789.31 81.21C1773.08 82.5945 1756.71 83.987 1740.23 85.3636C1735.26 81.0031 1730.8 76.579 1726.76 72.1151C1748.07 70.6748 1769.28 69.2028 1790.24 67.7466C1815.85 65.9642 1842.14 64.1341 1868.35 62.3915C1874.36 65.9642 1880.57 69.5529 1886.93 73.1176C1854.11 75.7037 1821.29 78.4887 1789.31 81.21ZM1788.9 66.0995C1767.89 67.5556 1746.65 69.0277 1725.28 70.4759C1720.69 65.2958 1716.62 60.076 1712.82 54.8482C1730.72 54.2673 1748.57 53.6785 1766.3 53.0897C1782.4 52.5486 1798.5 52.0155 1814.57 51.4903C1826.13 51.1083 1837.55 50.7503 1848.86 50.4081C1854.3 53.8615 1859.96 57.3387 1865.75 60.824C1839.95 62.5427 1814.1 64.341 1788.9 66.0995ZM1719.62 70.8578C1673.44 73.9611 1626.65 76.8734 1579.81 79.1491C1577.21 72.3697 1575.11 65.5664 1573.27 58.7949C1618.07 57.8003 1662.75 56.4714 1707 55.0392C1710.85 60.3227 1714.98 65.6062 1719.62 70.8578ZM1574.07 79.4276C1571.53 79.547 1569.01 79.6822 1566.47 79.8016C1523.75 81.759 1480.49 82.7696 1435.42 82.8492V60.5375C1479.34 60.4898 1523.45 59.8771 1567.45 58.9222C1569.34 65.7414 1571.44 72.5925 1574.07 79.4276ZM1429.6 58.8506C1385.9 58.8506 1341.93 58.3652 1298.01 57.6013C1299.3 52.7396 1300.44 47.9016 1301.59 43.1115C1302.17 40.7562 1302.74 38.3929 1303.31 36.0138C1345.51 35.8785 1387.65 35.8069 1429.6 35.8228V58.8506ZM1295.8 42.9921C1294.65 47.7902 1293.48 52.6361 1292.22 57.4979C1247.84 56.7022 1203.53 55.628 1159.7 54.4822C1163 49.4771 1166.09 44.4721 1169.13 39.5228C1169.73 38.5521 1170.33 37.5813 1170.9 36.6026C1213.02 36.3718 1255.27 36.1729 1297.49 36.0376C1296.92 38.3611 1296.34 40.6846 1295.8 42.9921ZM1163.39 39.2284C1160.33 44.2255 1157.24 49.2782 1153.88 54.331C1137.56 53.9013 1121.33 53.4636 1105.15 53.034C1087.11 52.5486 1069.07 52.0632 1051.06 51.5937C1040.79 51.3232 1030.29 51.0527 1019.74 50.7901C1025.7 46.3341 1031.41 41.8702 1037.04 37.446C1079.43 37.1516 1122.12 36.8811 1165 36.6344C1164.45 37.5017 1163.93 38.3691 1163.39 39.2284ZM1050.54 53.2806C1068.55 53.7501 1086.59 54.2355 1104.63 54.7209C1120.59 55.1506 1136.66 55.5802 1152.76 56.002C1148.98 61.6356 1144.83 67.2692 1140.05 72.8471C1118.46 71.6535 1097 70.4282 1075.82 69.2187C1050.79 67.7944 1025.32 66.3382 999.711 64.9378C1005.97 60.8001 1011.87 56.6226 1017.53 52.4372C1028.65 52.7157 1039.69 52.9942 1050.54 53.2806ZM1074.7 70.8817C1095.77 72.0832 1117.15 73.3007 1138.63 74.4942C1134.55 79.1173 1129.99 83.6926 1124.8 88.1884C1108.4 87.0585 1092.11 85.9126 1075.99 84.7748C1043.88 82.515 1011.11 80.2074 978.148 78.0669C984.926 74.2794 991.266 70.4202 997.279 66.5292C1023.32 67.9535 1049.23 69.4256 1074.7 70.8817ZM1074.84 100.124C1085.31 100.84 1095.88 101.564 1106.51 102.288C1103.75 104.254 1100.97 106.211 1098.23 108.137C1095.75 109.871 1093.26 111.622 1090.77 113.388C1085.85 113.062 1080.93 112.736 1076.07 112.418C1027.26 109.195 977.356 105.893 927.069 103.164C931.169 101.198 935.323 99.2567 939.422 97.3311C943.194 95.5566 946.993 93.7663 950.791 91.9521C992.605 94.4745 1034.17 97.3231 1074.84 100.124ZM1074.79 114.065C1079.35 114.367 1083.97 114.677 1088.56 114.98C1082.03 119.675 1075.66 124.457 1070.25 129.295C1070.03 129.486 1069.81 129.677 1069.59 129.86C1012.53 126.191 954.235 122.475 895.395 119.675C895.559 119.587 895.695 119.492 895.859 119.396C904.277 114.375 913.924 109.482 923.845 104.707C974.759 107.46 1025.35 110.802 1074.79 114.065ZM1067.76 131.483C1061.12 137.379 1054.26 143.331 1047.59 149.1C1047.18 149.442 1046.8 149.792 1046.39 150.126C985.445 146.498 923.353 142.965 860.741 140.586C871.399 134.101 882.058 127.663 892.744 121.266C951.803 124.067 1010.42 127.791 1067.76 131.483ZM1044.53 151.75C1036.41 158.784 1028.16 165.977 1020.21 173.146C954.809 169.717 888.316 166.558 821.414 164.807C833.657 157.184 845.874 149.657 858.09 142.201C920.92 144.564 983.313 148.105 1044.53 151.75ZM1242.64 163.049C1242.7 162.961 1242.72 162.882 1242.78 162.802C1306.98 165.611 1369.01 167.067 1429.6 167.194V188.193C1365.13 188.074 1299.08 186.617 1230.75 183.825C1234.61 176.878 1238.68 169.86 1242.64 163.049ZM1435.42 167.202C1436.19 167.202 1436.95 167.202 1437.75 167.202C1496.45 167.202 1553.79 165.937 1610.41 163.407C1614.38 163.232 1618.34 163.041 1622.28 162.858C1622.3 162.897 1622.33 162.929 1622.36 162.969C1626.35 169.828 1630.45 176.902 1634.33 183.896C1630.01 184.079 1625.72 184.27 1621.43 184.453C1560.43 186.991 1498.66 188.241 1435.42 188.209V167.202ZM1820.44 151.75C1881.55 148.121 1944.03 144.588 2006.61 142.217C2019.35 150.031 2031.51 157.534 2043.18 164.791C1976.52 166.534 1910.05 169.701 1844.79 173.122C1836.84 165.961 1828.56 158.768 1820.44 151.75ZM1818.58 150.134C1811.5 144.023 1804.26 137.745 1797.27 131.507C1854.55 127.831 1913.42 124.091 1972.31 121.29C1983.27 127.95 1993.79 134.379 2003.96 140.61C1941.59 142.989 1879.42 146.522 1818.58 150.134ZM1978.3 121.019C1983.43 120.781 1988.57 120.534 1993.71 120.311C2047.17 117.988 2101.33 117.144 2153.12 116.842L2195.32 137.522C2141.1 137.538 2086 137.872 2031.78 139.623C2024.54 139.862 2017.3 140.116 2010.05 140.387C1999.86 134.141 1989.28 127.687 1978.3 121.019ZM1992.84 118.632C1987.12 118.879 1981.41 119.149 1975.67 119.42C1975.26 119.165 1974.83 118.911 1974.42 118.648C1965.7 113.365 1956.57 108.089 1947.3 102.869C1952.22 102.591 1957.12 102.312 1962.04 102.05C2011.61 99.376 2061.79 97.8483 2112.18 97.0685C2124.73 103.02 2136.97 108.925 2149.05 114.837L2149.71 115.171C2098.71 115.489 2045.47 116.341 1992.84 118.632ZM1960.97 100.379C1955.48 100.673 1950.01 100.983 1944.52 101.294C1936.43 96.7422 1928.23 92.2226 1920.08 87.7587C1925.63 87.3767 1931.21 87.0028 1936.76 86.6367C1988 83.2709 2033.37 81.027 2075.21 79.8016C2086.63 85.0612 2097.78 90.2652 2108.71 95.4213C2059.16 96.225 2009.78 97.7528 1960.97 100.379ZM1909.15 71.3989C1903.69 71.8047 1898.19 72.2424 1892.7 72.672C1886.33 69.1232 1880.16 65.5664 1874.17 62.0016C1878.38 61.7231 1882.59 61.4446 1886.77 61.1741C1922.49 58.8506 1965.89 56.185 2012.29 54.0525C2021.78 56.9886 2030.77 60.0282 2038.94 63.4259C2000 65.1287 1957.85 67.7227 1909.15 71.3989ZM1852.42 48.5939C1847.09 45.2042 1841.92 41.8304 1836.92 38.5123C1879.06 38.8624 1921.51 39.1886 1964.03 39.4194C1969.99 41.4644 1976.03 43.382 1982.26 45.2201C1940.58 46.1033 1897.46 47.2253 1852.42 48.5939ZM1846.32 48.7769C1835.61 49.1032 1824.81 49.4453 1813.91 49.8034C1797.84 50.3286 1781.74 50.8696 1765.62 51.4028C1747.72 51.9995 1729.68 52.5963 1711.59 53.1851C1707.79 47.8698 1704.24 42.5624 1700.74 37.3108C1719.43 37.4699 1738.07 37.637 1756.6 37.8041C1781.11 38.0269 1805.77 38.2417 1830.5 38.4566C1835.61 41.8543 1840.88 45.2997 1846.32 48.7769ZM1695.03 37.6211C1698.5 42.833 1702.02 48.1006 1705.79 53.3761C1661.79 54.7925 1617.33 56.1134 1572.78 57.108C1571.47 52.1348 1570.24 47.1776 1569.04 42.2601C1568.55 40.2867 1568.05 38.2895 1567.56 36.2923C1610.14 36.5548 1652.64 36.889 1694.78 37.2551C1694.86 37.3744 1694.94 37.5017 1695.03 37.6211ZM1563.24 42.3794C1564.45 47.2969 1565.65 52.2542 1566.99 57.2353C1523.12 58.1822 1479.15 58.7949 1435.42 58.8426V35.8228C1477.35 35.8467 1519.54 36.0138 1561.71 36.2604C1562.23 38.3054 1562.72 40.3504 1563.24 42.3794ZM1435.42 34.1279V15.4765C1475.68 15.5322 1516.1 16.137 1556.47 17.0839C1558.3 22.9244 1559.83 28.7649 1561.3 34.5576C1519.27 34.3109 1477.21 34.1518 1435.42 34.1279ZM1429.6 34.1279C1387.79 34.112 1345.78 34.1836 1303.72 34.3189C1305.2 28.4307 1306.76 22.5026 1308.62 16.5746C1348.43 15.8823 1388.31 15.4606 1428.02 15.4606C1428.56 15.4606 1429.08 15.4606 1429.6 15.4606V34.1279ZM1297.9 34.3348C1255.9 34.478 1213.86 34.669 1171.97 34.9077C1175.11 29.8232 1178.36 24.6908 1181.92 19.5824C1222.04 18.4286 1262.35 17.4181 1302.74 16.686C1300.91 22.5822 1299.35 28.4864 1297.9 34.3348ZM1166.04 34.9396C1123.57 35.1783 1081.23 35.4488 1039.2 35.7353C1040.13 35.0032 1041.03 34.2712 1041.96 33.5391C1046.12 30.2528 1050.35 26.9109 1054.64 23.5609C1094.68 22.256 1135.16 20.9351 1175.88 19.7495C1172.35 24.8181 1169.13 29.9107 1166.04 34.9396ZM1036.5 32.9582C1035.32 33.8972 1034.15 34.8361 1032.94 35.7751C1013.16 35.9103 993.398 36.0456 973.775 36.1809C951.338 36.34 928.736 36.4912 906.053 36.6424C912.94 33.6585 919.745 30.6507 926.413 27.6031C967.298 26.4175 1007.96 25.0887 1048.17 23.7758C1044.23 26.8552 1040.32 29.9266 1036.5 32.9582ZM973.912 37.8757C992.797 37.7484 1011.76 37.6131 1030.78 37.4858C1025.24 41.8543 1019.61 46.2466 1013.7 50.6389C970.988 49.5806 926.168 48.57 879.899 47.7584C887.332 44.6631 894.766 41.528 902.118 38.3691C926.168 38.202 950.135 38.0428 973.912 37.8757ZM1011.49 52.286C1005.86 56.4157 1000.04 60.5375 993.835 64.6195C973.201 63.4975 952.486 62.4074 931.879 61.3969C906.19 60.1396 880.473 59.0973 854.592 58.2379C854.783 58.1663 854.974 58.0867 855.138 58.0151C862.053 55.1665 869.022 52.286 875.991 49.3896C922.833 50.2012 968.227 51.2118 1011.49 52.286ZM930.923 63.0679C951.01 64.0545 971.234 65.1128 991.376 66.2109C985.39 70.086 979.05 73.9134 972.272 77.6771C950.983 76.3084 929.638 75.0114 908.349 73.8417C880.555 72.314 852.897 71.1761 825.431 70.3327C833.849 66.7997 842.375 63.2747 850.766 59.8134C877.63 60.6887 904.277 61.7629 930.923 63.0679ZM907.256 75.5048C927.971 76.6426 948.742 77.9078 969.457 79.2366C962.68 82.8969 955.383 86.5094 947.949 90.0583C926.004 88.7454 903.976 87.52 881.976 86.4537C852.433 85.0214 822.753 84.0268 792.991 83.3584C802.666 79.6106 812.34 75.7912 821.605 71.9241C849.973 72.7675 878.56 73.9293 907.256 75.5048ZM881.019 88.1247C902.254 89.1591 923.517 90.3368 944.724 91.594C941.308 93.2252 937.865 94.8405 934.476 96.4319C929.994 98.5405 925.457 100.673 920.948 102.829C897.253 101.556 873.476 100.426 849.7 99.4795C819.337 98.2779 788.673 97.4743 757.873 96.9571C765.334 94.0209 772.877 91.1245 780.31 88.26C783.125 87.1699 785.995 86.0718 788.837 84.9737C819.692 85.6341 850.438 86.6447 881.019 88.1247ZM848.907 101.158C871.864 102.066 894.821 103.164 917.723 104.381C908.13 109.012 898.838 113.762 890.639 118.656C890.229 118.903 889.819 119.149 889.382 119.396C863.337 118.187 837.183 117.152 810.974 116.396C779.436 115.481 747.542 115.099 715.758 114.948C715.84 114.916 715.895 114.876 715.977 114.845C727.619 109.259 740.519 103.856 753.746 98.5962C785.694 99.1055 817.478 99.9171 848.907 101.158ZM810.4 118.083C835.898 118.815 861.342 119.818 886.731 120.995C876.018 127.401 865.332 133.854 854.674 140.363C827.153 139.344 799.55 138.557 771.92 138.095C738.196 137.53 704.252 137.188 670.2 136.981C684.193 130.178 698.213 123.383 712.26 116.635C745.028 116.77 777.933 117.136 810.4 118.083ZM771.592 139.79C798.43 140.236 825.267 141 852.023 141.97C839.779 149.45 827.536 156.993 815.265 164.64C786.541 163.932 757.736 163.478 728.931 163.391C691.654 163.279 654.158 163.224 616.662 163.184C633.251 155.028 649.976 146.832 666.756 138.66C701.847 138.851 736.856 139.209 771.592 139.79ZM728.876 165.086C756.807 165.173 784.738 165.603 812.641 166.287C798.32 175.223 783.945 184.294 769.488 193.524C738.578 193.134 707.669 192.904 676.759 192.904H556.4C557.985 192.116 559.625 191.312 561.21 190.524C578.373 182.058 595.727 173.488 613.218 164.879C651.862 164.911 690.478 164.974 728.876 165.086ZM1229.8 185.511C1298.45 188.32 1364.81 189.784 1429.6 189.896V208.762C1360.41 208.675 1289.1 207.624 1214.9 205.627C1220.48 199.07 1226.05 192.323 1229.8 185.511ZM1435.42 189.904C1436.27 189.904 1437.12 189.912 1437.97 189.912C1500.61 189.912 1561.8 188.647 1622.25 186.132C1626.57 185.949 1630.91 185.758 1635.26 185.567C1639.03 192.386 1644.6 199.126 1650.18 205.683C1644.82 205.842 1639.47 205.993 1634.14 206.144C1569.39 207.942 1503.39 208.818 1435.42 208.778V189.904ZM2051.98 166.271C2059.74 166.08 2067.5 165.905 2075.26 165.754C2133.47 164.648 2192.89 164.664 2251.02 164.823L2307.29 192.41C2244.87 192.458 2182.31 192.625 2120.27 193.015C2111.8 193.071 2103.36 193.15 2094.88 193.238C2081.25 184.565 2067.01 175.621 2051.98 166.271ZM2074.91 164.067C2066.38 164.226 2057.85 164.425 2049.35 164.632C2037.63 157.359 2025.44 149.832 2012.68 141.994C2019.26 141.755 2025.85 141.525 2032.44 141.31C2087.5 139.527 2143.61 139.217 2198.79 139.217L2247.55 163.12C2190.43 162.969 2132.11 162.977 2074.91 164.067ZM2205.54 139.217C2218.63 139.225 2231.67 139.249 2244.59 139.273C2260.28 139.297 2275.97 139.321 2291.63 139.321H2390.92C2411.36 147.357 2431.83 155.386 2452.22 163.375H2355.39C2329.78 163.375 2303.65 163.295 2278.37 163.216C2270.39 163.192 2262.39 163.16 2254.35 163.144L2205.54 139.217ZM2398.16 139.321H2584.3C2608.98 147.333 2633.55 155.37 2657.98 163.375H2459.49C2439.07 155.386 2418.6 147.357 2398.16 139.321ZM2386.63 137.626H2291.63C2275.97 137.626 2260.31 137.602 2244.65 137.578C2230.55 137.554 2216.34 137.53 2202.1 137.522L2159.82 116.81C2186.77 116.675 2213.06 116.667 2238.23 116.667H2333.47C2351.1 123.645 2368.83 130.631 2386.63 137.626ZM2238.23 114.972C2212.02 114.972 2184.55 114.98 2156.4 115.131L2154.02 113.969C2142.49 108.32 2130.77 102.662 2118.8 96.973C2173.18 96.1932 2227.81 96.2728 2282.17 96.7184C2297.75 102.702 2313.57 108.805 2328.96 114.884C2329.02 114.916 2329.1 114.948 2329.18 114.972H2238.23ZM2115.3 95.3179C2104.37 90.1299 2093.16 84.9021 2081.68 79.6186C2106.5 78.9502 2130.11 78.6399 2152.96 78.6796C2181 78.7353 2209.23 79.0298 2237.35 79.4833C2248.56 83.8279 2259.79 88.1406 2270.89 92.3818C2273.13 93.2491 2275.39 94.1244 2277.66 94.9837C2223.66 94.562 2169.38 94.5142 2115.3 95.3179ZM2152.99 76.9848C2129.05 76.937 2104.29 77.2712 2078.19 78.0033C2068.68 73.6269 2058.95 69.2028 2049 64.715C2070.83 63.8238 2091.74 63.219 2112.32 62.8769C2139.92 62.4233 2167.5 62.4472 2195.07 62.7893C2207.43 67.7864 2220.05 72.7755 2232.76 77.7089C2206.2 77.3031 2179.52 77.0405 2152.99 76.9848ZM2111.96 61.19C2090.37 61.548 2068.37 62.1926 2045.36 63.1474C2037.3 59.7259 2028.5 56.6624 2019.21 53.7421C2039.87 52.8191 2061.08 52.0155 2082.42 51.4028C2107.48 50.6866 2132.46 50.4081 2157.66 50.44C2169.19 53.3125 2179.91 56.7658 2190.7 61.0388C2164.46 60.7444 2138.26 60.7523 2111.96 61.19ZM2081.85 49.7159C2059.03 50.3683 2036.37 51.2436 2014.37 52.2383C2008.22 50.3604 2001.88 48.5143 1995.4 46.6444C2041.62 45.7134 2086.03 45.0769 2129.24 44.7347C2136.75 45.9283 2143.78 47.2492 2150.44 48.7371C2127.52 48.769 2104.72 49.0634 2081.85 49.7159ZM1989.91 45.061L1988.44 44.6313C1982.75 42.9842 1977.23 41.2734 1971.82 39.4592C2010.76 39.6581 2049.82 39.7854 2088.84 39.7854C2092.01 39.7854 2095.18 39.7775 2098.35 39.7775C2104.72 40.9312 2111.5 42.0373 2118.66 43.1274C2077.07 43.5014 2034.32 44.1459 1989.91 45.061ZM1944.33 29.1468C1938.07 26.5369 1931.75 23.728 1925.25 20.6645C1963.21 22.3594 2001.42 23.8156 2039.79 24.8579C2047.22 27.4758 2054.87 29.8391 2063.02 32.0193C2023.39 31.4146 1983.76 30.3961 1944.33 29.1468ZM1936.7 28.9081C1896.34 27.6031 1856.19 26.0595 1816.4 24.4839C1811.59 21.1181 1806.94 17.8318 1802.46 14.6331C1840.53 16.6064 1878.95 18.5718 1917.71 20.3224C1924.18 23.4177 1930.47 26.2584 1936.7 28.9081ZM1941.1 30.7541C1947.11 33.2367 1953.1 35.5363 1959.11 37.7007C1917.35 37.462 1875.73 37.1437 1834.38 36.7936C1829.05 33.2367 1823.94 29.7277 1818.99 26.2982C1859.39 27.8975 1900.13 29.4492 1941.1 30.7541ZM1827.96 36.7379C1804.13 36.531 1780.38 36.3241 1756.76 36.1092C1737.82 35.9422 1718.72 35.7671 1699.59 35.6C1696.42 30.8576 1693.17 26.0515 1689.72 21.2375C1721.18 22.3992 1752.5 23.6485 1783.49 24.8898C1793.08 25.2717 1802.7 25.6536 1812.32 26.0356C1817.33 29.5287 1822.55 33.1015 1827.96 36.7379ZM1693.63 35.5522C1651.74 35.1862 1609.49 34.852 1567.12 34.5974C1565.7 28.8365 1564.15 23.0278 1562.37 17.2191C1602.93 18.2058 1643.4 19.5346 1683.6 21.0067C1687.1 25.8764 1690.41 30.7462 1693.63 35.5522ZM1561.82 15.5084C1560.57 11.5616 1559.17 7.62289 1557.61 3.708C1596.5 4.86178 1635.26 6.42137 1673.71 8.1958C1676.77 11.8481 1679.59 15.5481 1682.32 19.2561C1642.36 17.792 1602.13 16.4791 1561.82 15.5084ZM1555.92 15.3731C1515.77 14.4341 1475.52 13.8374 1435.42 13.7817V1.71077C1474.23 1.75056 1513.04 2.42691 1551.71 3.53295C1553.27 7.45579 1554.66 11.4105 1555.92 15.3731ZM1429.6 13.7737C1389.54 13.7578 1349.31 14.1716 1309.16 14.8638C1310.39 10.9569 1311.79 7.06589 1313.34 3.19875C1352.04 2.27573 1390.85 1.71873 1429.6 1.70282V13.7737ZM1303.29 14.9752C1263.11 15.6993 1223.02 16.694 1183.15 17.8398C1185.72 14.2352 1188.45 10.6466 1191.43 7.10568C1229.91 5.6177 1268.61 4.30478 1307.44 3.34198C1305.88 7.20116 1304.52 11.0842 1303.29 14.9752ZM1177.08 18.0148C1136.74 19.1845 1096.65 20.4895 1056.97 21.7865C1061.09 18.5957 1065.3 15.4049 1069.65 12.2539C1107.83 10.567 1146.42 8.87215 1185.25 7.34439C1182.33 10.8694 1179.62 14.4342 1177.08 18.0148ZM1050.46 21.9934C1010.78 23.2983 970.66 24.6033 930.322 25.781C936.225 23.0517 942.019 20.3065 947.648 17.5135L947.266 17.4499C986.156 15.9221 1024.8 14.2352 1063.01 12.5483C1058.72 15.6755 1054.53 18.8344 1050.46 21.9934ZM922.997 25.9958C883.616 27.1257 844.043 28.1283 804.388 28.8603C811.766 26.4255 818.818 23.9667 825.595 21.4523L825.458 21.4205C863.966 20.4736 902.336 19.1845 940.461 17.7125C934.776 20.4974 928.955 23.2586 922.997 25.9958ZM894.957 38.4168C887.715 41.5201 880.418 44.5995 873.094 47.647C831.28 46.9309 788.372 46.3818 744.809 46.1033C753.855 43.7719 762.355 41.4723 770.472 39.1886C812.094 38.9579 853.69 38.6953 894.957 38.4168ZM869.186 49.2703C862.9 51.8802 856.614 54.4662 850.41 57.0364C849.618 57.3626 848.798 57.6968 848.005 58.0231C803.267 56.5987 757.927 55.7632 711.057 55.5007C719.639 52.8271 728.63 50.241 738.36 47.7664C782.743 48.021 826.524 48.5541 869.186 49.2703ZM844.179 59.5986C835.762 63.0678 827.235 66.6008 818.818 70.1337C769.625 68.7174 721.06 68.2877 673.452 68.4548C683.865 64.5877 694.496 60.808 705.838 57.1637C753.227 57.3785 799.031 58.1902 844.179 59.5986ZM781.923 84.8305C779.846 85.6341 777.741 86.4378 775.692 87.2335C767.465 90.4004 759.13 93.5992 750.904 96.8536C697.42 96.034 643.526 96.0579 589.961 96.416C594.47 94.9758 598.979 93.5514 603.461 92.1351C611.688 89.5411 620.023 86.9073 628.277 84.2257C679.437 83.7801 730.789 83.8279 781.923 84.8305ZM746.832 98.4928C734.287 103.506 722.099 108.646 711.003 113.969C710.347 114.28 709.691 114.606 709.008 114.924C683.865 114.829 658.831 114.868 634.152 114.916C619.422 114.948 604.691 114.972 589.988 114.972H535.903C535.958 114.956 536.012 114.932 536.067 114.916C551.098 109.084 567.769 103.53 584.549 98.1427C638.552 97.7607 692.883 97.705 746.832 98.4928ZM589.988 116.667C604.719 116.667 619.449 116.643 634.207 116.611C657.738 116.571 681.569 116.531 705.537 116.603C691.49 123.351 677.47 130.138 663.504 136.941C601.958 136.615 540.221 136.758 479.331 136.997C496.74 130.202 514.149 123.414 531.53 116.667H589.988ZM433.254 138.883C444.677 138.835 456.128 138.787 467.634 138.74C446.727 146.912 425.847 155.092 405.132 163.24C395.184 163.248 385.236 163.255 375.343 163.263C320.028 163.319 262.909 163.375 206.611 163.375C231.043 155.362 255.64 147.325 280.318 139.321C331.151 139.321 383.049 139.098 433.254 138.883ZM474.958 138.708C536.149 138.469 598.214 138.31 660.061 138.62C643.253 146.816 626.528 155.012 609.911 163.184C543.719 163.128 477.555 163.168 412.374 163.232C433.144 155.076 454.024 146.888 474.958 138.708ZM606.495 164.871C589.578 173.194 572.798 181.477 556.209 189.665C554.05 190.739 551.836 191.829 549.65 192.904H336.945C338.885 192.14 340.853 191.368 342.821 190.596C364.356 182.122 386.138 173.544 408.056 164.926C473.51 164.871 539.975 164.823 606.495 164.871ZM546.206 194.606C524.452 205.34 502.233 216.305 480.178 227.119H249.928C277.53 216.289 305.079 205.444 332.627 194.606H546.206ZM552.957 194.606H676.759C706.794 194.606 736.856 194.821 766.891 195.195C750.603 205.611 734.206 216.234 717.617 227.119H486.929C509.011 216.289 531.23 205.325 552.957 194.606ZM773.15 195.275C844.917 196.214 916.52 198.052 987.331 200.192C976.044 208.953 964.483 217.992 955.027 227.119H723.984C740.546 216.266 756.916 205.667 773.15 195.275ZM993.316 200.367C1028.82 201.449 1064.1 202.603 1099.08 203.741C1122.23 204.489 1145.38 205.245 1168.55 205.977C1181.67 206.399 1194.68 206.773 1207.63 207.139C1202.09 213.64 1196.43 220.348 1192.41 227.119H961.095C970.578 218.064 982.111 209.08 993.316 200.367ZM1213.45 207.33C1213.45 207.314 1213.48 207.306 1213.48 207.29C1288.17 209.311 1359.94 210.361 1429.6 210.457V227.119H1198.31C1202.33 220.435 1207.96 213.775 1213.45 207.33ZM1435.42 210.473C1436.9 210.473 1438.4 210.481 1439.88 210.481C1506.45 210.481 1571.17 209.598 1634.68 207.831C1640.31 207.672 1645.94 207.513 1651.6 207.346C1657.07 213.791 1662.7 220.443 1666.71 227.119H1435.42V210.473ZM1657.42 207.179C1701.89 205.866 1746.62 204.346 1790.13 202.874C1817.03 201.959 1844.16 201.036 1871.44 200.16C1882.75 208.929 1894.37 217.992 1903.93 227.119H1672.62C1668.63 220.363 1662.94 213.664 1657.42 207.179ZM1877.4 199.969C1948.12 197.71 2019.81 195.76 2091.22 194.972C2108.63 206.041 2125.08 216.663 2141.04 227.119H1910C1900.46 217.913 1888.79 208.802 1877.4 199.969ZM2097.51 194.901C2105.13 194.821 2112.78 194.758 2120.38 194.71C2183.54 194.312 2247.22 194.145 2310.76 194.105L2378.1 227.119H2147.41C2131.42 216.632 2114.94 205.985 2097.51 194.901ZM2317.51 194.105C2389.28 194.065 2460.82 194.177 2531.28 194.312C2559.24 205.245 2587.17 216.178 2615.07 227.119H2384.85L2317.51 194.105ZM2314.04 192.41L2257.82 164.847C2264.65 164.863 2271.51 164.887 2278.32 164.911C2303.6 164.99 2329.73 165.07 2355.39 165.07H2456.56C2479.25 173.966 2501.85 182.798 2524.17 191.535C2525.1 191.893 2526.01 192.251 2526.94 192.609C2456.75 192.482 2385.51 192.37 2314.04 192.41ZM2508.87 114.972H2336.39C2335.49 114.614 2334.56 114.248 2333.63 113.882C2319.18 108.161 2304.31 102.416 2289.63 96.782C2329.59 97.1401 2369.35 97.6732 2408.79 98.2143C2423.79 98.4212 2438.82 98.6201 2453.8 98.819L2453.83 98.7235C2472.47 103.959 2491.27 109.346 2508.87 114.972ZM2439.75 94.7848C2442.43 95.5328 2445.11 96.2807 2447.82 97.0366C2434.92 96.8695 2421.99 96.6945 2409.04 96.5194C2368.04 95.9624 2326.67 95.3975 2285.12 95.0474C2281.9 93.814 2278.67 92.5807 2275.5 91.3632C2265.42 87.4881 2255.17 83.5573 2244.95 79.6027C2297.26 80.4939 2349.13 81.9261 2398.79 83.4141L2398.87 83.1834C2412.42 87.146 2426.17 90.9972 2439.75 94.7848ZM2393.27 81.5442C2343.83 80.0721 2292.31 78.6876 2240.36 77.8362C2227.62 72.8869 2214.94 67.8978 2202.51 62.8848C2250.85 63.5851 2299.31 65.2481 2348.39 67.0782C2362.55 72.131 2377.69 76.9211 2393.27 81.5442ZM2343.01 65.1685C2294.31 63.3702 2246.18 61.7629 2198.11 61.1263C2197.94 61.0627 2197.78 60.9911 2197.62 60.9194C2187.37 56.7658 2177.25 53.3522 2166.51 50.4559C2210.51 50.623 2255.44 51.6733 2303.19 52.9226C2316.58 56.3759 2329.7 60.4261 2343.01 65.1685ZM2159.85 48.7451C2153.64 47.2333 2147.17 45.8805 2140.33 44.6472C2182.53 44.3607 2223.61 44.3448 2264.08 44.5995C2274.88 46.4375 2285.32 48.57 2295.54 51.0208C2248.28 49.8034 2203.68 48.8167 2159.85 48.7451ZM2253.18 42.8409C2213.11 42.6341 2172.44 42.6977 2130.63 43.024C2129.13 42.7932 2127.6 42.5545 2126.07 42.3317C2120.33 41.4882 2114.89 40.6368 2109.7 39.7695C2149.3 39.7218 2188.9 39.5467 2228.28 39.1886V39.0772C2229.95 39.3239 2231.64 39.5785 2233.33 39.8252C2239.81 40.796 2246.48 41.7986 2253.18 42.8409ZM2187.48 32.3296C2149.13 32.7752 2110.71 32.6638 2072.31 32.1387C2063.7 29.9903 2055.72 27.6668 2048.04 25.0807C2086.06 26.0435 2124.21 26.5926 2162.39 26.4971C2170.45 28.733 2178.81 30.6348 2187.48 32.3296ZM1795.71 14.283C1800.19 17.5056 1804.86 20.8237 1809.73 24.2214C1801.23 23.8872 1792.76 23.545 1784.28 23.2108C1752.61 21.9456 1720.61 20.6725 1688.41 19.4789C1685.73 15.7948 1682.92 12.1186 1679.89 8.47429C1717.57 10.2328 1754.96 12.1743 1791.94 14.092C1793.19 14.1557 1794.45 14.2193 1795.71 14.283ZM702.722 23.0517C741.065 23.0437 779.463 22.5106 817.724 21.6194C810.837 24.1179 803.677 26.5767 796.134 29.0195C756.479 29.7118 716.797 30.1335 677.224 30.1573C685.996 27.8896 694.55 25.5422 702.722 23.0517ZM624.778 42.5863C628.905 41.6553 633.032 40.7084 637.186 39.7615C678.59 39.6422 720.268 39.4592 761.89 39.2364C753.773 41.4803 745.247 43.748 736.201 46.0556C694.086 45.8248 651.479 45.8487 608.791 46.2307C614.12 45.0053 619.449 43.7878 624.778 42.5863ZM601.193 47.9812C644.264 47.5595 687.308 47.5117 729.86 47.7186C720.431 50.2092 711.631 52.7953 703.269 55.4609C660.006 55.2779 615.377 55.5882 568.726 56.3759C579.029 53.4636 589.742 50.6628 601.193 47.9812ZM562.495 58.1742C609.556 57.3387 654.513 56.9966 698.076 57.1398C686.898 60.816 676.376 64.6195 665.991 68.4866C616.962 68.7174 568.999 69.5688 522.348 70.6191C535.712 66.3223 548.83 62.1607 562.495 58.1742ZM512.29 73.8497L516.663 72.4413C563.615 71.3671 611.988 70.4759 661.373 70.2054C661.318 70.2213 661.263 70.2372 661.236 70.2531C649.976 74.4704 637.869 78.5603 625.598 82.5547C574.52 83.0083 523.659 83.9393 473.428 84.8703C486.956 81.393 500.101 77.7566 512.29 73.8497ZM433.172 94.7211C444.158 92.1032 455.254 89.4456 466.186 86.7004L470.722 86.6129C520.079 85.7058 570.038 84.7827 620.214 84.2973C613.191 86.5572 606.167 88.7851 599.198 90.9893C593.459 92.7955 587.692 94.6177 581.926 96.4637C551.29 96.6865 520.763 97.0048 490.509 97.3231C467.17 97.5618 443.147 97.8164 419.48 98.0154C424.044 96.9093 428.635 95.8112 433.172 94.7211ZM412.21 99.7739C438.282 99.559 464.929 99.2805 490.728 99.018C519.123 98.7156 547.764 98.4212 576.542 98.1984C560.909 103.243 545.496 108.439 531.421 113.898C530.492 114.256 529.563 114.614 528.633 114.972H356.13C373.402 109.497 392.724 104.524 412.21 99.7739ZM124.048 190.572C149.601 182.146 175.482 173.608 201.527 165.046V165.07C259.466 165.07 318.388 165.014 375.37 164.958C383.815 164.95 392.314 164.942 400.814 164.934C379.743 173.21 358.836 181.445 338.147 189.585C335.332 190.699 332.517 191.798 329.702 192.904H116.97C119.32 192.132 121.698 191.344 124.048 190.572ZM111.832 194.606H325.384C297.836 205.444 270.316 216.289 242.685 227.119H12.9815C46.0228 216.305 79.31 205.333 111.832 194.606ZM2622.34 227.119C2594.44 216.178 2566.51 205.253 2538.55 194.328C2541.94 194.328 2545.35 194.336 2548.74 194.344C2615.7 194.471 2684.95 194.598 2753 194.598C2785.61 205.325 2818.98 216.297 2852.05 227.119H2622.34Z"
        fill="white" />
</svg>
