<svg width="28" height="28" viewBox="0 0 28 28" fill="none" xmlns="http://www.w3.org/2000/svg">
    <rect width="28" height="28" rx="14" fill="#303030" />
    <path
        d="M11.4433 8.55469C11.7917 8.55469 11.918 8.59097 12.0454 8.65909C12.1728 8.72722 12.2728 8.82719 12.3409 8.95457C12.409 9.08195 12.4453 9.2083 12.4453 9.55674V18.4415C12.4453 18.79 12.409 18.9163 12.3409 19.0437C12.2728 19.1711 12.1728 19.271 12.0454 19.3392C11.918 19.4073 11.7917 19.4436 11.4433 19.4436H9.94736C9.59893 19.4436 9.47258 19.4073 9.3452 19.3392C9.21781 19.271 9.11784 19.1711 9.04972 19.0437C8.98159 18.9163 8.94531 18.79 8.94531 18.4415V9.55674C8.94531 9.2083 8.98159 9.08195 9.04972 8.95457C9.11784 8.82719 9.21781 8.72722 9.3452 8.65909C9.47258 8.59097 9.59893 8.55469 9.94736 8.55469H11.4433ZM17.6655 8.55469C18.0139 8.55469 18.1403 8.59097 18.2677 8.65909C18.395 8.72722 18.495 8.82719 18.5631 8.95457C18.6313 9.08195 18.6675 9.2083 18.6675 9.55674V18.4415C18.6675 18.79 18.6313 18.9163 18.5631 19.0437C18.495 19.1711 18.395 19.271 18.2677 19.3392C18.1403 19.4073 18.0139 19.4436 17.6655 19.4436H16.1696C15.8212 19.4436 15.6948 19.4073 15.5674 19.3392C15.44 19.271 15.3401 19.1711 15.2719 19.0437C15.2038 18.9163 15.1675 18.79 15.1675 18.4415V9.55674C15.1675 9.2083 15.2038 9.08195 15.2719 8.95457C15.3401 8.82719 15.44 8.72722 15.5674 8.65909C15.6948 8.59097 15.8212 8.55469 16.1696 8.55469H17.6655Z"
        fill="#B7DF42" />
</svg>
